<svg width="380" height="380" viewBox="0 0 380 380" fill="none" xmlns="http://www.w3.org/2000/svg">
<circle cx="190" cy="190" r="190" fill="#B4ACFF"/>
<mask id="mask0" mask-type="alpha" maskUnits="userSpaceOnUse" x="0" y="0" width="380" height="380">
<circle cx="190" cy="190" r="190" fill="#FFEDEF"/>
</mask>
<g mask="url(#mask0)">
<path d="M238 68C238.5 72.5 237.7 81.5 236.5 87.5" stroke="black" stroke-width="4"/>
<g filter="url(#filter0_d)">
<g clip-path="url(#clip0)">
<path d="M253 362.5C238.6 342.5 227.333 303.834 226 284.5L157.5 255L129 362.5H253Z" fill="#AC6651" stroke="black" stroke-width="4"/>
<mask id="mask1" mask-type="alpha" maskUnits="userSpaceOnUse" x="129" y="255" width="124" height="118">
<path d="M253 372.5C238.6 352.5 227.333 303.834 226 284.5L157.5 255L129 372.5H253Z" fill="#AC6651"/>
</mask>
<g mask="url(#mask1)">
<g style="mix-blend-mode:multiply">
<ellipse cx="223" cy="253" rx="59" ry="54" fill="black"/>
</g>
</g>
<mask id="path-7-inside-1" fill="white">
<path fill-rule="evenodd" clip-rule="evenodd" d="M282.886 193.917C282.859 193.801 282.831 193.685 282.803 193.569C282.776 193.454 282.748 193.338 282.719 193.222L266.323 124.786C266.306 124.718 266.29 124.65 266.274 124.582C266.258 124.514 266.242 124.446 266.225 124.379L266.152 124.075L266.151 124.076C255.933 82.6308 214.156 57.1472 172.582 67.1081C131.008 77.0689 105.315 118.717 114.988 160.293L114.986 160.293L131.978 231.211L131.992 231.208C142.594 272.112 184.062 297.149 225.329 287.261C266.597 277.374 292.216 236.264 283.131 194.996L283.144 194.993L282.886 193.917Z"/>
</mask>
<path fill-rule="evenodd" clip-rule="evenodd" d="M282.886 193.917C282.859 193.801 282.831 193.685 282.803 193.569C282.776 193.454 282.748 193.338 282.719 193.222L266.323 124.786C266.306 124.718 266.29 124.65 266.274 124.582C266.258 124.514 266.242 124.446 266.225 124.379L266.152 124.075L266.151 124.076C255.933 82.6308 214.156 57.1472 172.582 67.1081C131.008 77.0689 105.315 118.717 114.988 160.293L114.986 160.293L131.978 231.211L131.992 231.208C142.594 272.112 184.062 297.149 225.329 287.261C266.597 277.374 292.216 236.264 283.131 194.996L283.144 194.993L282.886 193.917Z" fill="#AC6651"/>
<path d="M282.886 193.917L278.992 194.831L278.994 194.84L278.996 194.849L282.886 193.917ZM282.719 193.222L278.83 194.154L278.832 194.163L278.834 194.172L282.719 193.222ZM266.323 124.786L262.43 125.708L262.433 125.718L266.323 124.786ZM266.225 124.379L262.335 125.311L262.338 125.321L266.225 124.379ZM266.152 124.075L270.042 123.143L269.111 119.255L265.222 120.185L266.152 124.075ZM266.151 124.076L262.267 125.033L263.218 128.89L267.081 127.966L266.151 124.076ZM172.582 67.1081L171.65 63.2182L172.582 67.1081ZM114.988 160.293L115.922 164.182L119.784 163.255L118.884 159.386L114.988 160.293ZM114.986 160.293L114.052 156.404L110.165 157.337L111.096 161.225L114.986 160.293ZM131.978 231.211L128.088 232.143L129.02 236.035L132.911 235.101L131.978 231.211ZM131.992 231.208L135.864 230.204L134.878 226.401L131.058 227.318L131.992 231.208ZM225.329 287.261L224.397 283.371H224.397L225.329 287.261ZM283.131 194.996L282.2 191.106L278.381 192.021L279.225 195.856L283.131 194.996ZM283.144 194.993L284.075 198.883L287.966 197.951L287.034 194.061L283.144 194.993ZM286.78 193.002C286.751 192.881 286.722 192.759 286.693 192.637L278.914 194.502C278.94 194.611 278.966 194.721 278.992 194.831L286.78 193.002ZM286.693 192.637C286.664 192.516 286.635 192.395 286.605 192.273L278.834 194.172C278.861 194.281 278.887 194.391 278.914 194.502L286.693 192.637ZM262.433 125.718L278.83 194.154L286.609 192.29L270.212 123.854L262.433 125.718ZM270.215 123.863C270.198 123.793 270.181 123.722 270.164 123.65L262.384 125.514C262.4 125.578 262.415 125.643 262.43 125.708L270.215 123.863ZM270.164 123.65C270.147 123.579 270.13 123.508 270.113 123.436L262.338 125.321C262.353 125.385 262.369 125.449 262.384 125.514L270.164 123.65ZM262.262 125.007L262.335 125.311L270.115 123.447L270.042 123.143L262.262 125.007ZM267.081 127.966L267.083 127.966L265.222 120.185L265.221 120.185L267.081 127.966ZM270.035 123.118C259.291 79.5398 215.364 52.7447 171.65 63.2182L173.514 70.998C212.949 61.5498 252.575 85.7219 262.267 125.033L270.035 123.118ZM171.65 63.2182C127.936 73.6917 100.922 117.484 111.092 161.199L118.884 159.386C109.709 119.951 134.08 80.4461 173.514 70.998L171.65 63.2182ZM115.92 164.183L115.922 164.182L114.054 156.403L114.052 156.404L115.92 164.183ZM135.868 230.279L118.876 159.361L111.096 161.225L128.088 232.143L135.868 230.279ZM131.058 227.318L131.044 227.322L132.911 235.101L132.925 235.097L131.058 227.318ZM128.12 232.211C139.268 275.223 182.869 301.548 226.261 291.151L224.397 283.371C185.254 292.75 145.92 269.002 135.864 230.204L128.12 232.211ZM226.261 291.151C269.653 280.755 296.591 237.53 287.038 194.136L279.225 195.856C287.842 234.999 263.541 273.993 224.397 283.371L226.261 291.151ZM282.212 191.103L282.2 191.106L284.063 198.886L284.075 198.883L282.212 191.103ZM278.996 194.849L279.254 195.925L287.034 194.061L286.776 192.985L278.996 194.849Z" fill="black" mask="url(#path-7-inside-1)"/>
</g>
<path d="M276.177 78.3965C267.855 118.294 169.499 123.896 149.677 123.896C97.6548 129.823 122.625 192.262 132.177 223.396C124.677 224.396 125.677 233.396 96.6772 161.896C73.4772 104.696 139.183 69.8337 187.999 57.9995C236.815 46.1653 255.499 29.502 255.499 29.502C276.177 38 281.116 54.7185 276.177 78.3965Z" fill="black"/>
<path d="M271.134 151.947L255.316 98.5069L265.354 89.3644C276.109 126.452 276.601 147.988 271.134 151.947Z" fill="black"/>
<path d="M146 197C140.4 169.8 126.333 174.667 117 176L107 132L147.584 123.506C148.336 123.266 149.141 123.095 150 123L147.584 123.506C129.433 129.299 141.956 175.796 157 195L146 197Z" fill="black"/>
<path d="M90.9887 94.3632C99.8341 89.9091 110.281 92.4873 114.398 94.3331L102.627 109.213C105.663 104.357 96.1329 97.2897 90.9887 94.3632Z" fill="black"/>
<path d="M76 111.5C87.6 104.7 98.8333 107 103 109L98.5 124.5C97.3 116.1 83 112.333 76 111.5Z" fill="black"/>
<path d="M209.277 178.926C214.497 176.94 223.601 177.54 223.04 187.639C222.542 196.615 213.333 198.397 210.4 196.304" stroke="black" stroke-width="4"/>
<path d="M133.5 180.176C131.17 179.408 128.655 179 126.08 179C115.587 179 107.08 185.5 108.08 197.5C109.122 210 116.587 214.5 127.08 214.5C128.248 214.5 129.391 214.397 130.5 214.201C131.711 213.987 132.881 213.661 134 213.235" stroke="black" stroke-width="8"/>
<path d="M134.5 213.036C132.22 213.979 129.713 214.5 127.08 214.5C116.587 214.5 109.122 210 108.08 197.5C107.08 185.5 115.587 179 126.08 179C129.217 179 132.267 179.606 135 180.73L134.5 213.036Z" fill="#AC6651"/>
<path d="M130.5 187.5C126.5 185.667 117.7 184.7 114.5 195.5" stroke="black" stroke-width="4"/>
<path d="M120 188C122.167 189.833 126.3 195.5 125.5 203.5" stroke="black" stroke-width="4"/>
<path d="M198.771 359.578C198.771 359.578 198.771 359.578 200 358L198.771 359.578L200.493 360.919L201.679 359.087L201.679 359.087L201.681 359.084L201.69 359.07L201.731 359.007C201.742 358.99 201.755 358.971 201.769 358.949C201.803 358.897 201.847 358.832 201.9 358.753C202.05 358.528 202.275 358.195 202.57 357.77C203.158 356.919 204.023 355.702 205.118 354.246C207.312 351.332 210.416 347.482 214.071 343.718C217.737 339.945 221.898 336.318 226.198 333.793C230.514 331.26 234.777 329.949 238.733 330.483C281.171 336.205 312.402 355.002 332.674 383.001H59.3745C75.6742 353.659 98.8579 334.983 136.445 326.413C138.046 326.047 140.224 326.158 142.947 326.791C145.642 327.418 148.715 328.519 152.028 329.976C158.655 332.889 166.052 337.136 173.004 341.536C179.945 345.93 186.39 350.443 191.104 353.86C193.459 355.567 195.379 357 196.709 358.004C197.374 358.506 197.891 358.901 198.241 359.169C198.416 359.304 198.55 359.407 198.639 359.475L198.739 359.553L198.764 359.572L198.77 359.577L198.771 359.578Z" fill="#6BD9E9" stroke="black" stroke-width="4"/>
<path d="M124.613 329.085L129.779 309.853C129.989 309.074 130.996 308.854 131.54 309.449C146.403 325.714 165.16 325.076 171.385 324.33C172.23 324.228 172.892 325.153 172.495 325.906L159.338 350.859C159.136 351.241 158.724 351.452 158.3 351.364C154.352 350.541 134.677 345.732 124.729 329.867C124.583 329.635 124.542 329.35 124.613 329.085Z" fill="#D2EFF3" stroke="black" stroke-width="4"/>
<path d="M255.195 328.981L243.615 309.499C243.222 308.837 242.253 308.848 241.834 309.494C236.097 318.33 226.202 322.4 222.742 323.602C222.12 323.819 221.835 324.558 222.171 325.125L235.673 347.94C235.875 348.281 236.255 348.465 236.636 348.357C238.771 347.749 246.096 344.685 255.182 330.021C255.378 329.706 255.385 329.3 255.195 328.981Z" fill="#D2EFF3" stroke="black" stroke-width="4"/>
<path d="M181.5 346.5L172.5 325L165.5 340L181.5 346.5Z" fill="black" stroke="black" stroke-width="4" stroke-linejoin="round"/>
<path d="M213 345.5L222 324L229 339L213 345.5Z" fill="black" stroke="black" stroke-width="4" stroke-linejoin="round"/>
<path d="M142.5 306L130.5 309L140.5 315.5L142.5 306Z" fill="black" stroke="black" stroke-width="4" stroke-linejoin="round"/>
<path d="M232 306L243 309L236 315.5L232 306Z" fill="black" stroke="black" stroke-width="4" stroke-linejoin="round"/>
</g>
<path d="M224 125.214C229.667 122.548 243 120.114 251 131.714" stroke="black" stroke-width="4" stroke-linecap="round"/>
<path d="M148.579 150.521C150.65 144.61 158.261 133.396 172.142 135.822" stroke="black" stroke-width="4" stroke-linecap="round"/>
<circle cx="171.24" cy="162.239" r="12" transform="rotate(-6.27568 171.24 162.239)" fill="#D2EFF3"/>
<ellipse cx="172.53" cy="171.402" rx="9" ry="13.5" transform="rotate(-6.77646 172.53 171.402)" fill="black"/>
<circle cx="235.019" cy="153.61" r="12" transform="rotate(-6.27568 235.019 153.61)" fill="#D2EFF3"/>
<ellipse cx="236.531" cy="161.402" rx="9" ry="13.5" transform="rotate(-6.27568 236.531 161.402)" fill="black"/>
<rect x="183.248" y="223.471" width="70" height="24" rx="4" transform="rotate(-4 183.248 223.471)" fill="black"/>
<path fill-rule="evenodd" clip-rule="evenodd" d="M246.821 219.025L189.504 223.033L191.344 230.038C192.077 232.827 194.689 234.7 197.566 234.499C194.689 234.7 192.363 236.919 192.025 239.782L191.178 246.975L248.495 242.967L246.655 235.962C245.923 233.173 243.31 231.3 240.434 231.501C243.31 231.3 245.636 229.081 245.974 226.218L246.821 219.025Z" fill="white"/>
<path d="M256.419 237.704L255.4 223.134C255.143 219.448 251.663 216.88 248.079 217.649C241.135 219.14 227.858 221.783 218.262 222.454C208.667 223.125 195.151 222.355 188.067 221.845C184.411 221.582 181.323 224.61 181.581 228.296L182.599 242.866C182.857 246.552 186.336 249.12 189.921 248.351C196.865 246.86 210.142 244.217 219.737 243.546C229.333 242.875 242.849 243.645 249.933 244.155C253.589 244.418 256.677 241.39 256.419 237.704Z" stroke="black" stroke-width="4"/>
<path d="M200.001 271.165C204.941 277.612 212.428 284.754 223.977 283.125C235.526 281.496 240.664 273.53 239.149 267.078" stroke="black" stroke-width="4"/>
</g>
<defs>
<filter id="filter0_d" x="52.0176" y="27" width="288.501" height="366.001" filterUnits="userSpaceOnUse" color-interpolation-filters="sRGB">
<feFlood flood-opacity="0" result="BackgroundImageFix"/>
<feColorMatrix in="SourceAlpha" type="matrix" values="0 0 0 0 0 0 0 0 0 0 0 0 0 0 0 0 0 0 127 0"/>
<feOffset dy="4"/>
<feGaussianBlur stdDeviation="2"/>
<feColorMatrix type="matrix" values="0 0 0 0 0 0 0 0 0 0 0 0 0 0 0 0 0 0 0.25 0"/>
<feBlend mode="normal" in2="BackgroundImageFix" result="effect1_dropShadow"/>
<feBlend mode="normal" in="SourceGraphic" in2="effect1_dropShadow" result="shape"/>
</filter>
<clipPath id="clip0">
<rect width="200" height="320" fill="white" transform="translate(99 43)"/>
</clipPath>
</defs>
</svg>
