<svg width="380" height="380" viewBox="0 0 380 380" fill="none" xmlns="http://www.w3.org/2000/svg">
<circle cx="190" cy="190" r="190" fill="#FFEBA4"/>
<mask id="mask0" mask-type="alpha" maskUnits="userSpaceOnUse" x="0" y="0" width="380" height="380">
<circle cx="190" cy="190" r="190" fill="#FFEDEF"/>
</mask>
<g mask="url(#mask0)">
<path d="M238 68C238.5 72.5 237.7 81.5 236.5 87.5" stroke="black" stroke-width="4"/>
<g filter="url(#filter0_d)">
<g clip-path="url(#clip0)">
<path d="M253 362.5C238.6 342.5 227.333 303.834 226 284.5L157.5 255L129 362.5H253Z" fill="#AC6651" stroke="black" stroke-width="4"/>
<mask id="mask1" mask-type="alpha" maskUnits="userSpaceOnUse" x="129" y="255" width="124" height="118">
<path d="M253 372.5C238.6 352.5 227.333 303.834 226 284.5L157.5 255L129 372.5H253Z" fill="#AC6651"/>
</mask>
<g mask="url(#mask1)">
<g style="mix-blend-mode:multiply">
<ellipse cx="223" cy="253" rx="59" ry="54" fill="black"/>
</g>
</g>
<mask id="path-7-inside-1" fill="white">
<path fill-rule="evenodd" clip-rule="evenodd" d="M282.886 193.917C282.859 193.801 282.831 193.685 282.803 193.569C282.776 193.454 282.748 193.338 282.719 193.222L266.323 124.786C266.306 124.718 266.29 124.65 266.274 124.582C266.258 124.514 266.242 124.446 266.225 124.379L266.152 124.075L266.151 124.076C255.933 82.6308 214.156 57.1472 172.582 67.1081C131.008 77.0689 105.315 118.717 114.988 160.293L114.986 160.293L131.978 231.211L131.992 231.208C142.594 272.112 184.062 297.149 225.329 287.261C266.597 277.374 292.216 236.264 283.131 194.996L283.144 194.993L282.886 193.917Z"/>
</mask>
<path fill-rule="evenodd" clip-rule="evenodd" d="M282.886 193.917C282.859 193.801 282.831 193.685 282.803 193.569C282.776 193.454 282.748 193.338 282.719 193.222L266.323 124.786C266.306 124.718 266.29 124.65 266.274 124.582C266.258 124.514 266.242 124.446 266.225 124.379L266.152 124.075L266.151 124.076C255.933 82.6308 214.156 57.1472 172.582 67.1081C131.008 77.0689 105.315 118.717 114.988 160.293L114.986 160.293L131.978 231.211L131.992 231.208C142.594 272.112 184.062 297.149 225.329 287.261C266.597 277.374 292.216 236.264 283.131 194.996L283.144 194.993L282.886 193.917Z" fill="#AC6651"/>
<path d="M282.886 193.917L278.992 194.831L278.994 194.84L278.996 194.849L282.886 193.917ZM282.719 193.222L278.83 194.154L278.832 194.163L278.834 194.172L282.719 193.222ZM266.323 124.786L262.43 125.708L262.433 125.718L266.323 124.786ZM266.225 124.379L262.335 125.311L262.338 125.321L266.225 124.379ZM266.152 124.075L270.042 123.143L269.111 119.255L265.222 120.185L266.152 124.075ZM266.151 124.076L262.267 125.033L263.218 128.89L267.081 127.966L266.151 124.076ZM172.582 67.1081L171.65 63.2182L172.582 67.1081ZM114.988 160.293L115.922 164.182L119.784 163.255L118.884 159.386L114.988 160.293ZM114.986 160.293L114.052 156.404L110.165 157.337L111.096 161.225L114.986 160.293ZM131.978 231.211L128.088 232.143L129.02 236.035L132.911 235.101L131.978 231.211ZM131.992 231.208L135.864 230.204L134.878 226.401L131.058 227.318L131.992 231.208ZM225.329 287.261L224.397 283.371H224.397L225.329 287.261ZM283.131 194.996L282.2 191.106L278.381 192.021L279.225 195.856L283.131 194.996ZM283.144 194.993L284.075 198.883L287.966 197.951L287.034 194.061L283.144 194.993ZM286.78 193.002C286.751 192.881 286.722 192.759 286.693 192.637L278.914 194.502C278.94 194.611 278.966 194.721 278.992 194.831L286.78 193.002ZM286.693 192.637C286.664 192.516 286.635 192.395 286.605 192.273L278.834 194.172C278.861 194.281 278.887 194.391 278.914 194.502L286.693 192.637ZM262.433 125.718L278.83 194.154L286.609 192.29L270.212 123.854L262.433 125.718ZM270.215 123.863C270.198 123.793 270.181 123.722 270.164 123.65L262.384 125.514C262.4 125.578 262.415 125.643 262.43 125.708L270.215 123.863ZM270.164 123.65C270.147 123.579 270.13 123.508 270.113 123.436L262.338 125.321C262.353 125.385 262.369 125.449 262.384 125.514L270.164 123.65ZM262.262 125.007L262.335 125.311L270.115 123.447L270.042 123.143L262.262 125.007ZM267.081 127.966L267.083 127.966L265.222 120.185L265.221 120.185L267.081 127.966ZM270.035 123.118C259.291 79.5398 215.364 52.7447 171.65 63.2182L173.514 70.998C212.949 61.5498 252.575 85.7219 262.267 125.033L270.035 123.118ZM171.65 63.2182C127.936 73.6917 100.922 117.484 111.092 161.199L118.884 159.386C109.709 119.951 134.08 80.4461 173.514 70.998L171.65 63.2182ZM115.92 164.183L115.922 164.182L114.054 156.403L114.052 156.404L115.92 164.183ZM135.868 230.279L118.876 159.361L111.096 161.225L128.088 232.143L135.868 230.279ZM131.058 227.318L131.044 227.322L132.911 235.101L132.925 235.097L131.058 227.318ZM128.12 232.211C139.268 275.223 182.869 301.548 226.261 291.151L224.397 283.371C185.254 292.75 145.92 269.002 135.864 230.204L128.12 232.211ZM226.261 291.151C269.653 280.755 296.591 237.53 287.038 194.136L279.225 195.856C287.842 234.999 263.541 273.993 224.397 283.371L226.261 291.151ZM282.212 191.103L282.2 191.106L284.063 198.886L284.075 198.883L282.212 191.103ZM278.996 194.849L279.254 195.925L287.034 194.061L286.776 192.985L278.996 194.849Z" fill="black" mask="url(#path-7-inside-1)"/>
</g>
<path d="M224 133.214C229.667 130.548 243 128.114 251 139.714" stroke="black" stroke-width="4" stroke-linecap="round"/>
<path d="M148.579 158.521C150.65 152.61 158.261 141.396 172.142 143.822" stroke="black" stroke-width="4" stroke-linecap="round"/>
<path d="M151.074 152.458L144.926 147.031" stroke="black" stroke-width="4" stroke-linecap="round"/>
<path d="M247.961 134.157L254.109 128.73" stroke="black" stroke-width="4" stroke-linecap="round"/>
<path d="M157.523 146.814L153.477 139.682" stroke="black" stroke-width="4" stroke-linecap="round"/>
<path d="M240.512 130.513L244.559 123.381" stroke="black" stroke-width="4" stroke-linecap="round"/>
<path d="M165.599 143.201L163.398 135.301" stroke="black" stroke-width="4" stroke-linecap="round"/>
<path d="M231.436 129.9L233.637 122" stroke="black" stroke-width="4" stroke-linecap="round"/>
<path d="M249.92 216.331C249.75 214.263 247.636 213.112 245.845 213.818C241.616 215.484 227.627 220.783 217.763 222.14C206.94 223.629 190.55 221.821 185.806 221.232C183.877 220.992 182.157 222.65 182.49 224.665C183.142 228.608 184.484 232.409 186.459 235.891C188.661 239.775 191.606 243.188 195.127 245.933C198.648 248.679 202.676 250.704 206.979 251.893C211.283 253.083 215.779 253.413 220.21 252.864C224.641 252.316 228.921 250.901 232.805 248.698C236.689 246.496 240.101 243.55 242.847 240.029C245.593 236.508 247.618 232.481 248.807 228.178C249.873 224.321 250.248 220.311 249.92 216.331Z" fill="black" stroke="black" stroke-width="4"/>
<mask id="mask2" mask-type="alpha" maskUnits="userSpaceOnUse" x="184" y="215" width="65" height="37">
<path d="M247.793 215.193C248.309 219.363 247.999 223.594 246.879 227.645C245.76 231.695 243.854 235.486 241.27 238.8C238.686 242.113 235.474 244.886 231.818 246.958C228.163 249.031 224.135 250.364 219.964 250.88C215.794 251.396 211.563 251.085 207.512 249.966C203.462 248.846 199.671 246.94 196.357 244.356C193.043 241.772 190.271 238.56 188.198 234.905C186.126 231.249 184.793 227.221 184.277 223.051L247.793 215.193Z" fill="#171921"/>
</mask>
<g mask="url(#mask2)">
<circle cx="220.522" cy="255.315" r="21.5" transform="rotate(-7.05286 220.522 255.315)" fill="#FC909F"/>
</g>
<path d="M54.6007 344.857C54.4477 344.466 54.2377 343.916 53.9828 343.219C53.4158 341.667 52.6268 339.384 51.7485 336.479C49.9915 330.667 47.8806 322.38 46.4734 312.502C43.6563 292.725 43.6769 266.696 54.8698 241.384C56.679 237.292 58.94 233.089 61.3903 228.533C70.8582 210.931 83.1551 188.07 83.1551 146.084C83.1551 115.493 98.0029 89.7305 119.862 71.5692C141.741 53.3915 170.56 42.9109 198.237 42.9109C213.368 42.9109 225.533 44.6444 235.311 50.5511C245.028 56.4212 252.679 66.5978 258.362 84.1322C258.94 85.9168 260.851 87.0074 262.719 86.4015C274.034 82.7304 291.191 86.4361 305.673 95.8904C320.091 105.303 331.289 120.046 331.289 137.814C331.289 153.24 328.647 163.664 326.071 173.815L326.071 173.815C322.952 186.104 319.94 197.974 322.065 217.313C322.774 223.762 324.216 228.336 326.231 232.128C328.213 235.859 330.712 238.747 333.345 241.792L333.405 241.861C339.679 249.113 342.534 255.079 343.455 260.327C344.375 265.562 343.412 270.31 341.623 275.237C340.723 277.712 339.629 280.197 338.47 282.815L338.37 283.041C337.248 285.573 336.074 288.225 335.019 291.016C332.836 296.787 331.133 303.223 331.302 310.851C331.446 317.326 332.594 321.764 334.311 325.122C336.008 328.442 338.199 330.565 340.11 332.416L340.162 332.466C341.905 334.155 343.355 335.577 344.428 337.57C345.387 339.351 346.098 341.702 346.217 345.232C322.208 359.511 298.445 365.413 280.601 367.734C271.565 368.91 264.057 369.166 258.818 369.129C256.199 369.11 254.149 369.019 252.76 368.932C252.271 368.902 251.865 368.872 251.544 368.847C245.393 359.458 239.789 343.969 235.447 328.059C231.226 312.589 228.261 296.968 227.147 286.649C264.22 275.931 287.458 237.667 281.871 198.189C281.864 198.117 281.856 198.067 281.856 198.066C281.848 198.006 281.837 197.938 281.825 197.867C281.813 197.792 281.798 197.703 281.78 197.601C281.764 197.511 281.746 197.41 281.726 197.3C281.641 196.832 281.516 196.172 281.353 195.346C281.028 193.693 280.552 191.358 279.942 188.532C278.722 182.88 276.967 175.249 274.825 167.155C272.685 159.065 270.152 150.485 267.372 142.945C264.613 135.46 261.541 128.802 258.264 124.706L257.967 124.335L257.532 124.146C255.6 123.308 253.593 122.374 251.499 121.399C241.568 116.775 229.659 111.23 214.235 110.62C195.46 109.877 171.684 116.396 139.544 139.706L137.521 141.173L139.467 142.74C155.393 155.574 158.836 172.598 158.1 187.048C157.539 198.077 154.551 207.459 152.865 212.149C151.704 210.452 150.964 208.319 150.408 205.814C150.023 204.083 149.743 202.258 149.449 200.347L149.403 200.045C149.096 198.051 148.769 195.97 148.292 193.961C147.341 189.95 145.732 185.941 142.16 183.102C138.581 180.257 133.364 178.848 125.767 179.272L123.54 179.396L124.005 181.578L135.363 234.891L135.382 234.98L135.41 235.068C139.468 247.93 146.426 259.078 155.323 267.88C155.399 268.007 155.509 268.193 155.65 268.434C155.939 268.928 156.356 269.653 156.861 270.563C157.87 272.384 159.229 274.941 160.621 277.886C163.435 283.835 166.282 291.138 166.83 297.102C167.386 303.154 165.865 310.962 164.123 317.412C163.26 320.605 162.361 323.406 161.677 325.407C161.535 325.824 161.402 326.206 161.281 326.549C156.249 324.144 151.754 324.323 147.902 326.565C143.738 328.989 140.689 333.625 138.419 338.781C134.271 348.202 132.276 360.42 131.355 368.002C106.485 362.298 87.281 356.507 74.2149 352.107C67.5012 349.846 62.408 347.953 58.9993 346.627C57.2949 345.964 56.0117 345.443 55.1575 345.089C54.9454 345.002 54.7598 344.924 54.6007 344.857Z" fill="#3A3A3A" stroke="black" stroke-width="3.82184"/>
<path d="M213.5 172C213.5 186 220.5 197 220.5 197C220.5 197 217 203 207 201" stroke="#171921" stroke-width="4"/>
<path d="M133.5 180.176C131.17 179.408 128.655 179 126.08 179C115.587 179 107.08 185.5 108.08 197.5C109.122 210 116.587 214.5 127.08 214.5C128.248 214.5 129.391 214.397 130.5 214.201C131.711 213.987 132.881 213.661 134 213.235" stroke="black" stroke-width="8"/>
<path d="M134.5 213.036C132.22 213.979 129.713 214.5 127.08 214.5C116.587 214.5 109.122 210 108.08 197.5C107.08 185.5 115.587 179 126.08 179C129.217 179 132.267 179.606 135 180.73L134.5 213.036Z" fill="#AC6651"/>
<path d="M130.5 187.5C126.5 185.667 117.7 184.7 114.5 195.5" stroke="black" stroke-width="4"/>
<path d="M120 188C122.167 189.833 126.3 195.5 125.5 203.5" stroke="black" stroke-width="4"/>
<path d="M198.771 359.578C198.771 359.578 198.771 359.578 200 358L198.771 359.578L200.493 360.919L201.679 359.087L201.679 359.087L201.681 359.084L201.69 359.07L201.731 359.007C201.742 358.99 201.755 358.971 201.769 358.949C201.803 358.897 201.847 358.832 201.9 358.753C202.05 358.528 202.275 358.195 202.57 357.77C203.158 356.919 204.023 355.702 205.118 354.246C207.312 351.332 210.416 347.482 214.071 343.718C217.737 339.945 221.898 336.318 226.198 333.793C230.514 331.26 234.777 329.949 238.733 330.483C281.171 336.205 312.402 355.002 332.674 383.001H59.3745C75.6742 353.659 98.8579 334.983 136.445 326.413C138.046 326.047 140.224 326.158 142.947 326.791C145.642 327.418 148.715 328.519 152.028 329.976C158.655 332.889 166.052 337.136 173.004 341.536C179.945 345.93 186.39 350.443 191.104 353.86C193.459 355.567 195.379 357 196.709 358.004C197.374 358.506 197.891 358.901 198.241 359.169C198.416 359.304 198.55 359.407 198.639 359.475L198.739 359.553L198.764 359.572L198.77 359.577L198.771 359.578Z" fill="#6BD9E9" stroke="black" stroke-width="4"/>
<path d="M124.613 329.085L129.779 309.853C129.989 309.074 130.996 308.854 131.54 309.449C146.403 325.714 165.16 325.076 171.385 324.33C172.23 324.228 172.892 325.153 172.495 325.906L159.338 350.859C159.136 351.241 158.724 351.452 158.3 351.364C154.352 350.541 134.677 345.732 124.729 329.867C124.583 329.635 124.542 329.35 124.613 329.085Z" fill="#D2EFF3" stroke="black" stroke-width="4"/>
<path d="M255.195 328.981L243.615 309.499C243.222 308.837 242.253 308.848 241.834 309.494C236.097 318.33 226.202 322.4 222.742 323.602C222.12 323.819 221.835 324.558 222.171 325.125L235.673 347.94C235.875 348.281 236.255 348.465 236.636 348.357C238.771 347.749 246.096 344.685 255.182 330.021C255.378 329.706 255.385 329.3 255.195 328.981Z" fill="#D2EFF3" stroke="black" stroke-width="4"/>
<path d="M181.5 346.5L172.5 325L165.5 340L181.5 346.5Z" fill="black" stroke="black" stroke-width="4" stroke-linejoin="round"/>
<path d="M213 345.5L222 324L229 339L213 345.5Z" fill="black" stroke="black" stroke-width="4" stroke-linejoin="round"/>
<path d="M142.5 306L130.5 309L140.5 315.5L142.5 306Z" fill="black" stroke="black" stroke-width="4" stroke-linejoin="round"/>
<path d="M232 306L243 309L236 315.5L232 306Z" fill="black" stroke="black" stroke-width="4" stroke-linejoin="round"/>
</g>
<circle cx="171.24" cy="162.239" r="12" transform="rotate(-6.27568 171.24 162.239)" fill="#D2EFF3"/>
<ellipse cx="172.53" cy="171.402" rx="9" ry="13.5" transform="rotate(-6.77646 172.53 171.402)" fill="black"/>
<circle cx="235.019" cy="153.61" r="12" transform="rotate(-6.27568 235.019 153.61)" fill="#D2EFF3"/>
<ellipse cx="236.531" cy="161.402" rx="9" ry="13.5" transform="rotate(-6.27568 236.531 161.402)" fill="black"/>
</g>
<defs>
<filter id="filter0_d" x="39" y="41" width="313.146" height="352.001" filterUnits="userSpaceOnUse" color-interpolation-filters="sRGB">
<feFlood flood-opacity="0" result="BackgroundImageFix"/>
<feColorMatrix in="SourceAlpha" type="matrix" values="0 0 0 0 0 0 0 0 0 0 0 0 0 0 0 0 0 0 127 0"/>
<feOffset dy="4"/>
<feGaussianBlur stdDeviation="2"/>
<feColorMatrix type="matrix" values="0 0 0 0 0 0 0 0 0 0 0 0 0 0 0 0 0 0 0.25 0"/>
<feBlend mode="normal" in2="BackgroundImageFix" result="effect1_dropShadow"/>
<feBlend mode="normal" in="SourceGraphic" in2="effect1_dropShadow" result="shape"/>
</filter>
<clipPath id="clip0">
<rect width="200" height="320" fill="white" transform="translate(99 43)"/>
</clipPath>
</defs>
</svg>
